HIERARCHY
ROOT joint_Root
{
	OFFSET 0.0 0.0 0.0
	CHANNELS 6 Xposition Yposition Zposition Zrotation Xrotation Yrotation 
	JOINT Hips
	{
		OFFSET -17.1583 93.1646 452.98
		CHANNELS 6 Xposition Yposition Zposition Zrotation Xrotation Yrotation 
		JOINT Spine
		{
			OFFSET 15.7357 0.0 0.0
			CHANNELS 6 Xposition Yposition Zposition Zrotation Xrotation Yrotation 
			JOINT Chest
			{
				OFFSET 8.98455 -0.406207 0.0
				CHANNELS 6 Xposition Yposition Zposition Zrotation Xrotation Yrotation 
				JOINT Neck
				{
					OFFSET 16.3773 0.0 0.0
					CHANNELS 6 Xposition Yposition Zposition Zrotation Xrotation Yrotation 
					JOINT Head
					{
						OFFSET 6.45672 0.0 0.0
						CHANNELS 6 Xposition Yposition Zposition Zrotation Xrotation Yrotation 
						End Site
						{
							OFFSET 0.0 0.0 0.0
						}
					}
				}
				JOINT Shoulder_L
				{
					OFFSET 12.9942 -0.242716 4.98039
					CHANNELS 6 Xposition Yposition Zposition Zrotation Xrotation Yrotation 
					JOINT UpperArm_L
					{
						OFFSET 5.34809 0.0 0.0
						CHANNELS 6 Xposition Yposition Zposition Zrotation Xrotation Yrotation 
						JOINT LowerArm_L
						{
							OFFSET 24.3286 1.87007e-05 0.0
							CHANNELS 6 Xposition Yposition Zposition Zrotation Xrotation Yrotation 
							JOINT Hand_L
							{
								OFFSET 22.2916 0.0 0.0
								CHANNELS 6 Xposition Yposition Zposition Zrotation Xrotation Yrotation 
								End Site
								{
									OFFSET 0.0 0.0 0.0
								}
							}
						}
					}
				}
				JOINT Shoulder_R
				{
					OFFSET 12.9945 -0.242716 -4.98039
					CHANNELS 6 Xposition Yposition Zposition Zrotation Xrotation Yrotation 
					JOINT UpperArm_R
					{
						OFFSET -5.34813 0.0 0.0
						CHANNELS 6 Xposition Yposition Zposition Zrotation Xrotation Yrotation 
						JOINT LowerArm_R
						{
							OFFSET -24.3289 0.000322201 0.0
							CHANNELS 6 Xposition Yposition Zposition Zrotation Xrotation Yrotation 
							JOINT Hand_R
							{
								OFFSET -22.2915 -0.000108084 0.0
								CHANNELS 6 Xposition Yposition Zposition Zrotation Xrotation Yrotation 
								End Site
								{
									OFFSET 0.0 0.0 0.0
								}
							}
						}
					}
				}
			}
		}
		JOINT UpperLeg_L
		{
			OFFSET -2.19248 -6.46944 0.0
			CHANNELS 6 Xposition Yposition Zposition Zrotation Xrotation Yrotation 
			JOINT LowerLeg_L
			{
				OFFSET 39.0811 0.0 -1.23785e-05
				CHANNELS 6 Xposition Yposition Zposition Zrotation Xrotation Yrotation 
				JOINT Foot_L
				{
					OFFSET 40.9854 0.0 -1.26872e-05
					CHANNELS 6 Xposition Yposition Zposition Zrotation Xrotation Yrotation 
					JOINT Toes_L
					{
						OFFSET 11.7543 0.0 0.0
						CHANNELS 6 Xposition Yposition Zposition Zrotation Xrotation Yrotation 
						End Site
						{
							OFFSET 0.0 0.0 0.0
						}
					}
				}
			}
		}
		JOINT UpperLeg_R
		{
			OFFSET -2.19251 6.46944 0.0
			CHANNELS 6 Xposition Yposition Zposition Zrotation Xrotation Yrotation 
			JOINT LowerLeg_R
			{
				OFFSET -39.0811 -0.00228153 -0.0401928
				CHANNELS 6 Xposition Yposition Zposition Zrotation Xrotation Yrotation 
				JOINT Foot_R
				{
					OFFSET -40.9854 0.0 0.0
					CHANNELS 6 Xposition Yposition Zposition Zrotation Xrotation Yrotation 
					JOINT Toes_R
					{
						OFFSET -11.7543 0.0 0.0
						CHANNELS 6 Xposition Yposition Zposition Zrotation Xrotation Yrotation 
						End Site
						{
							OFFSET 0.0 0.0 0.0
						}
					}
				}
			}
		}
	}
}
MOTION
Frames:	9
Frame Time:	0.0333333
0.000000 0.000000 0.000000 0.000000 0.000000 -0.000000 -3.402280 91.836500 -0.545955 85.650200 0.928827 7.447200 15.735700 0.000005 -0.000001 84.082900 85.801600 -82.248500 8.984550 -0.406207 -0.000000 0.604492 -0.979916 3.671240 16.377300 -0.000001 -0.000001 11.755700 1.851320 -0.994999 6.456720 -0.000001 -0.000000 -3.754580 0.889262 5.002720 12.994200 -0.242716 4.980390 -93.044600 8.683770 -70.593600 5.348090 -0.000007 -0.000001 -73.606900 20.960700 0.422582 24.328600 0.000019 0.000005 11.859400 24.443800 -26.906500 22.291600 -0.000001 0.000005 -6.691840 5.021720 6.854390 12.994500 -0.242716 -4.980390 87.540200 6.682790 -69.738600 -5.348130 -0.000001 -0.000004 -69.160200 33.050600 -5.542020 -24.328900 0.000322 -0.000009 1.291550 4.761410 -15.207400 -22.291500 -0.000108 -0.000004 -2.175380 5.295250 0.205108 -2.192480 -6.469440 -0.000000 -175.090000 4.336630 -0.365400 39.081100 -0.000007 -0.000012 0.372088 -0.701452 27.944800 40.985400 -0.000006 -0.000013 0.754226 3.972870 -75.990100 11.754300 -0.000000 0.000003 -0.000367 0.173583 -9.536040 -2.192510 6.469440 -0.000001 -172.160000 10.072200 -173.456000 -39.081100 -0.002282 -0.040193 0.145376 -0.476435 16.602100 -40.985400 0.000008 0.000006 5.627360 2.459310 -72.121100 -11.754300 -0.000006 -0.000006 -0.011247 0.280397 -5.178960
0.000000 0.000000 0.000000 0.000000 0.000000 -0.000000 -3.385210 91.833000 -0.545207 85.625400 0.823256 7.425410 15.735700 0.000005 -0.000001 84.090900 85.779300 -82.242600 8.984550 -0.406207 -0.000000 0.649207 -0.983482 3.699300 16.377300 -0.000001 -0.000001 11.593700 1.856170 -0.965893 6.456720 -0.000001 -0.000000 -3.854640 0.980600 4.806190 12.994200 -0.242716 4.980390 -93.083800 8.785550 -70.570700 5.348090 -0.000007 -0.000001 -73.418500 20.027200 0.825836 24.328600 0.000019 0.000005 12.643900 23.845200 -29.026300 22.291600 -0.000001 0.000005 -7.682140 5.009730 7.112500 12.994500 -0.242716 -4.980390 87.524100 6.718590 -69.716100 -5.348130 -0.000001 -0.000004 -69.106000 32.991900 -5.569190 -24.328900 0.000322 -0.000009 1.303740 4.805670 -15.209600 -22.291500 -0.000108 -0.000004 -2.220520 5.292470 0.282583 -2.192480 -6.469440 -0.000000 -175.077000 4.279100 -0.381302 39.081100 -0.000007 -0.000012 0.375121 -0.706469 27.968300 40.985400 -0.000006 -0.000013 0.760224 3.928530 -75.970700 11.754300 -0.000000 0.000003 -0.000270 0.172055 -9.598100 -2.192510 6.469440 -0.000001 -172.105000 9.916990 -173.491000 -39.081100 -0.002282 -0.040193 0.147218 -0.482077 16.619500 -40.985400 0.000008 0.000006 5.635620 2.369590 -72.090000 -11.754300 -0.000006 -0.000006 -0.011433 0.281718 -5.124880
0.000000 0.000000 0.000000 0.000000 0.000000 -0.000000 -3.364930 91.850700 -0.568520 85.596800 0.777491 7.322030 15.735700 0.000005 -0.000001 84.187000 85.789500 -82.314500 8.984550 -0.406207 -0.000000 0.630341 -0.969153 3.747490 16.377300 -0.000001 -0.000001 11.401700 1.839050 -1.004580 6.456720 -0.000001 -0.000000 -3.967570 0.968477 4.570780 12.994200 -0.242716 4.980390 -93.155500 8.955220 -70.497600 5.348090 -0.000007 -0.000001 -73.056000 18.734500 1.295710 24.328600 0.000019 0.000005 13.622200 22.639000 -32.193600 22.291600 -0.000001 0.000005 -8.870250 4.993720 7.453730 12.994500 -0.242716 -4.980390 87.510000 6.730250 -69.642100 -5.348130 -0.000001 -0.000004 -69.023300 32.961700 -5.579670 -24.328900 0.000322 -0.000009 1.297050 4.775820 -15.225200 -22.291500 -0.000108 -0.000004 -2.158690 5.293500 0.254011 -2.192480 -6.469440 -0.000000 -175.050000 4.270150 -0.454776 39.081100 -0.000007 -0.000012 0.371746 -0.701901 27.907800 40.985400 -0.000006 -0.000013 0.757529 3.901510 -76.006700 11.754300 -0.000000 0.000003 -0.000363 0.173528 -9.538280 -2.192510 6.469440 -0.000001 -172.119000 9.967730 -173.581000 -39.081100 -0.002282 -0.040193 0.141378 -0.464065 16.566900 -40.985400 0.000008 0.000006 5.483440 2.557740 -72.021000 -11.754300 -0.000006 -0.000006 -0.011159 0.279768 -5.204700
0.000000 0.000000 0.000000 0.000000 0.000000 -0.000000 -3.374480 91.852000 -0.608664 85.553000 0.804370 7.193150 15.735700 0.000005 -0.000001 84.205800 85.806100 -82.316500 8.984550 -0.406207 -0.000000 0.597801 -0.964639 3.780830 16.377300 -0.000001 -0.000001 11.216600 1.797670 -1.091340 6.456720 -0.000001 -0.000000 -4.239150 0.874847 4.239030 12.994200 -0.242716 4.980390 -93.204800 9.032360 -70.370700 5.348090 -0.000007 -0.000001 -72.627700 17.044400 1.646960 24.328600 0.000019 0.000005 14.902400 21.222800 -36.321700 22.291600 -0.000001 0.000005 -10.037500 4.971450 7.921040 12.994500 -0.242716 -4.980390 87.476500 6.791070 -69.559400 -5.348130 -0.000001 -0.000004 -68.948700 32.790100 -5.598090 -24.328900 0.000322 -0.000009 1.287400 4.755120 -15.179900 -22.291500 -0.000108 -0.000004 -2.288340 5.294840 0.216759 -2.192480 -6.469440 -0.000000 -175.002000 4.317190 -0.642561 39.081100 -0.000007 -0.000012 0.377555 -0.711445 27.955300 40.985400 -0.000006 -0.000013 0.750127 3.894650 -75.973500 11.754300 -0.000000 0.000003 -0.000264 0.171949 -9.602410 -2.192510 6.469440 -0.000001 -172.026000 9.906400 -173.747000 -39.081100 -0.002282 -0.040193 0.141929 -0.466047 16.562600 -40.985400 0.000008 0.000006 5.468040 2.490210 -71.985600 -11.754300 -0.000006 -0.000006 -0.011397 0.281463 -5.135330
0.000000 0.000000 0.000000 0.000000 0.000000 -0.000000 -3.366430 91.870800 -0.657753 85.543500 0.833952 7.072120 15.735700 0.000005 -0.000001 84.514200 85.819000 -82.613800 8.984550 -0.406207 -0.000000 0.575842 -0.918305 3.802780 16.377300 -0.000001 -0.000001 10.988800 1.651590 -1.335810 6.456720 -0.000001 -0.000000 -4.562950 0.654565 3.725990 12.994200 -0.242716 4.980390 -93.247000 9.074450 -70.216500 5.348090 -0.000007 -0.000001 -72.134000 15.055200 1.835140 24.328600 0.000019 0.000005 17.168400 20.306800 -41.675100 22.291600 -0.000001 0.000005 -10.544200 4.962570 8.105550 12.994500 -0.242716 -4.980390 87.433100 6.885360 -69.496800 -5.348130 -0.000001 -0.000004 -68.803400 32.834600 -5.535450 -24.328900 0.000322 -0.000009 1.265940 4.635230 -15.306000 -22.291500 -0.000108 -0.000004 -2.239490 5.291710 0.303765 -2.192480 -6.469440 -0.000000 -174.971000 4.296060 -0.786553 39.081100 -0.000007 -0.000012 0.365417 -0.690295 27.896000 40.985400 -0.000006 -0.000013 0.751603 3.915350 -75.892500 11.754300 -0.000000 0.000003 -0.000290 0.172375 -9.585130 -2.192510 6.469440 -0.000001 -172.045000 10.038800 -173.883000 -39.081100 -0.002282 -0.040193 0.137838 -0.453574 16.518300 -40.985400 0.000008 0.000006 5.363950 2.637330 -71.943200 -11.754300 -0.000006 -0.000006 -0.011429 0.281688 -5.126100
0.000000 0.000000 0.000000 0.000000 0.000000 -0.000000 -3.373400 91.881100 -0.703557 85.537200 0.975450 6.888380 15.735700 0.000005 -0.000001 84.686400 85.860900 -82.777900 8.984550 -0.406207 -0.000000 0.494389 -0.887421 3.818120 16.377300 -0.000001 -0.000001 10.704200 1.464860 -1.786240 6.456720 -0.000001 -0.000000 -4.868470 0.307663 2.917740 12.994200 -0.242716 4.980390 -93.260500 9.040920 -70.072800 5.348090 -0.000007 -0.000001 -71.565700 13.040800 1.802770 24.328600 0.000019 0.000005 20.246500 19.256200 -48.198700 22.291600 -0.000001 0.000005 -10.399500 4.930730 8.758210 12.994500 -0.242716 -4.980390 87.374500 7.012520 -69.413600 -5.348130 -0.000001 -0.000004 -68.648000 32.909500 -5.482980 -24.328900 0.000322 -0.000009 1.219410 4.464320 -15.306900 -22.291500 -0.000108 -0.000004 -2.244380 5.294660 0.221845 -2.192480 -6.469440 -0.000000 -174.946000 4.324040 -1.034990 39.081100 -0.000007 -0.000012 0.373036 -0.704437 27.904500 40.985400 -0.000006 -0.000013 0.757637 3.990210 -75.915400 11.754300 -0.000000 0.000003 -0.000412 0.174292 -9.507240 -2.192510 6.469440 -0.000001 -172.007000 10.120900 -174.079000 -39.081100 -0.002282 -0.040193 0.135463 -0.447506 16.450500 -40.985400 0.000008 0.000006 5.354900 2.598830 -71.855000 -11.754300 -0.000006 -0.000006 -0.011243 0.280366 -5.180220
0.000000 0.000000 0.000000 0.000000 0.000000 -0.000000 -3.396060 91.897300 -0.733442 85.543300 1.055980 6.767060 15.735700 0.000005 -0.000001 85.008800 85.884300 -83.080000 8.984550 -0.406207 -0.000000 0.451289 -0.838992 3.858250 16.377300 -0.000001 -0.000001 10.446100 1.298210 -2.514740 6.456720 -0.000001 -0.000000 -5.267250 -0.038489 1.641170 12.994200 -0.242716 4.980390 -93.245900 8.929810 -69.929800 5.348090 -0.000007 -0.000001 -71.019900 10.968500 1.553000 24.328600 0.000019 0.000005 23.788200 17.671700 -55.444700 22.291600 -0.000001 0.000005 -9.561120 4.894090 9.495170 12.994500 -0.242716 -4.980390 87.311400 7.164970 -69.368500 -5.348130 -0.000001 -0.000004 -68.455000 33.035900 -5.495300 -24.328900 0.000322 -0.000009 1.204450 4.425360 -15.254700 -22.291500 -0.000108 -0.000004 -2.321740 5.292140 0.291782 -2.192480 -6.469440 -0.000000 -174.918000 4.366780 -1.158620 39.081100 -0.000007 -0.000012 0.367137 -0.695400 27.832700 40.985400 -0.000006 -0.000013 0.746501 4.046000 -75.863500 11.754300 -0.000000 0.000003 -0.000527 0.176073 -9.434910 -2.192510 6.469440 -0.000001 -171.929000 9.909800 -174.213000 -39.081100 -0.002282 -0.040193 0.133109 -0.441406 16.384400 -40.985400 0.000008 0.000006 5.239490 2.339660 -71.793500 -11.754300 -0.000006 -0.000006 -0.011265 0.280526 -5.173690
0.000000 0.000000 0.000000 0.000000 0.000000 -0.000000 -3.409650 91.910000 -0.744106 85.577500 1.119330 6.659680 15.735700 0.000005 -0.000001 85.241800 85.917800 -83.295500 8.984550 -0.406207 -0.000000 0.386987 -0.802301 3.892650 16.377300 -0.000001 -0.000001 10.233800 1.182540 -3.469070 6.456720 -0.000001 -0.000000 -5.643640 -0.293814 -0.088805 12.994200 -0.242716 4.980390 -93.229500 8.787600 -69.728600 5.348090 -0.000007 -0.000001 -70.491400 8.757430 1.002940 24.328600 0.000019 0.000005 27.494300 15.247400 -63.189700 22.291600 -0.000001 0.000005 -8.537800 4.848270 10.394500 12.994500 -0.242716 -4.980390 87.251200 7.322740 -69.358800 -5.348130 -0.000001 -0.000004 -68.298500 33.066100 -5.482760 -24.328900 0.000322 -0.000009 1.202570 4.434520 -15.202000 -22.291500 -0.000108 -0.000004 -2.372040 5.292060 0.294026 -2.192480 -6.469440 -0.000000 -174.930000 4.342600 -1.238580 39.081100 -0.000007 -0.000012 0.365950 -0.695751 27.744300 40.985400 -0.000006 -0.000013 0.746420 4.089880 -75.797600 11.754300 -0.000000 0.000003 -0.000374 0.173702 -9.531200 -2.192510 6.469440 -0.000001 -171.915000 9.803550 -174.322000 -39.081100 -0.002282 -0.040193 0.131070 -0.435608 16.343900 -40.985400 0.000008 0.000006 5.134900 2.247120 -71.711400 -11.754300 -0.000006 -0.000006 -0.011194 0.280024 -5.194240
0.000000 0.000000 0.000000 0.000000 0.000000 -0.000000 -3.431920 91.924300 -0.773867 85.596200 1.048850 6.502010 15.735700 0.000005 -0.000001 85.832600 85.993000 -83.873400 8.984550 -0.406207 -0.000000 0.242028 -0.710788 3.917350 16.377300 -0.000001 -0.000001 10.132100 1.135150 -4.494810 6.456720 -0.000001 -0.000000 -5.990110 -0.324413 -2.159620 12.994200 -0.242716 4.980390 -93.214300 8.656630 -69.538400 5.348090 -0.000007 -0.000001 -69.991900 6.272430 0.289836 24.328600 0.000019 0.000005 31.348900 11.880400 -71.325700 22.291600 -0.000001 0.000005 -7.852010 4.809980 11.127500 12.994500 -0.242716 -4.980390 87.218300 7.446260 -69.448300 -5.348130 -0.000001 -0.000004 -68.275400 33.106600 -5.353080 -24.328900 0.000322 -0.000009 1.168770 4.312960 -15.191000 -22.291500 -0.000108 -0.000004 -2.329700 5.290320 0.342254 -2.192480 -6.469440 -0.000000 -174.926000 4.321100 -1.372990 39.081100 -0.000007 -0.000012 0.366682 -0.699130 27.677100 40.985400 -0.000006 -0.000013 0.725074 4.076080 -75.799700 11.754300 -0.000000 0.000003 -0.000466 0.175137 -9.472920 -2.192510 6.469440 -0.000001 -171.843000 9.543110 -174.474000 -39.081100 -0.002282 -0.040193 0.129798 -0.432985 16.282700 -40.985400 0.000008 0.000006 5.094240 2.064870 -71.663800 -11.754300 -0.000006 -0.000006 -0.011498 0.282175 -5.106160
